<?xml version="1.0" encoding="UTF-8" standalone="no"?><!DOCTYPE svg PUBLIC "-//W3C//DTD SVG 1.1//EN" "http://www.w3.org/Graphics/SVG/1.1/DTD/svg11.dtd"><svg width="100%" height="100%" viewBox="0 0 4267 4267" version="1.1" xmlns="http://www.w3.org/2000/svg" xmlns:xlink="http://www.w3.org/1999/xlink" xml:space="preserve" xmlns:serif="http://www.serif.com/" style="fill-rule:evenodd;clip-rule:evenodd;stroke-linejoin:round;stroke-miterlimit:2;"><g><rect x="0" y="0" width="4266.67" height="4266.67" style="fill:url(#_Linear1);"/><g><path d="M883.333,2877.72l0,-2500l2500,0l0,655.224l-1250,594.776l1250,594.776l0,655.224l-2500,0Z" style="fill:none;"/><path d="M883.333,2877.72l0,-2500l2500,0l0,655.224l-1250,594.776l1250,594.776l0,655.224l-2500,0Z" style="fill:none;"/><path d="M883.333,1627.72c0,-689.894 560.107,-1250 1250,-1250c497.671,0 927.802,291.467 1128.86,712.865l-645.473,307.13c-86.095,-180.446 -270.28,-305.255 -483.387,-305.255c-295.417,0 -535.259,239.842 -535.259,535.26c-0,295.418 239.842,535.26 535.259,535.26c213.107,-0 397.292,-124.809 483.387,-305.255l645.473,307.13c-201.058,421.398 -631.189,712.865 -1128.86,712.865c-689.893,0 -1250,-560.106 -1250,-1250Z" style="fill:url(#_Linear2);"/><path d="M3030.54,2054.63c-157.554,335.244 -498.38,567.583 -893.043,567.583c-342.137,-0 -643.813,-174.61 -820.702,-439.502l163.05,-98.112c143.429,209.782 384.577,347.568 657.652,347.568c318.999,-0 594.428,-188.027 721.412,-459.203l171.631,81.666Z" style="fill:#fff;fill-opacity:0.76;"/><path d="M3023.92,2051.48c-158.619,332.453 -497.962,562.399 -890.589,562.399c-544.276,0 -986.16,-441.883 -986.16,-986.16c0,-544.277 441.884,-986.16 986.16,-986.16c392.627,-0 731.97,229.946 890.589,562.399l-171.628,81.665c-128.052,-268.385 -401.999,-454.018 -718.961,-454.018c-439.387,-0 -796.114,356.727 -796.114,796.114c0,439.387 356.727,796.114 796.114,796.114c316.962,0 590.909,-185.633 718.961,-454.018l171.628,81.665Z" style="fill:url(#_Linear3);"/><path d="M3023.92,2051.48c-158.619,332.453 -497.962,562.399 -890.589,562.399c-544.276,0 -986.16,-441.883 -986.16,-986.16c0,-544.277 441.884,-986.16 986.16,-986.16c392.627,-0 731.97,229.946 890.589,562.399l-171.628,81.665c-128.052,-268.385 -401.999,-454.018 -718.961,-454.018c-439.387,-0 -796.114,356.727 -796.114,796.114c0,439.387 356.727,796.114 796.114,796.114c316.962,0 590.909,-185.633 718.961,-454.018l171.628,81.665Z" style="fill:url(#_Radial4);"/><circle cx="2133.33" cy="1627.72" r="375.071" style="fill:url(#_Linear5);"/><circle cx="2133.33" cy="1627.72" r="375.071" style="fill:url(#_Linear6);"/><circle cx="1833.29" cy="1485.11" r="114.583" style="fill:url(#_Linear7);"/><circle cx="1833.29" cy="1485.11" r="114.583" style="fill:url(#_Linear8);"/></g><path d="M760.406,3000.65l-0,-2745.85l2745.86,-0l-0,719.66l-1372.93,653.267l1372.93,653.267l-0,719.66l-2745.86,0Z" style="fill:none;"/><g transform="matrix(904.516,0,0,904.516,3637.18,3888.95)"></g><text x="629.488px" y="3888.95px" style="font-family:'Anta-Regular', 'Anta';font-size:904.516px;fill:url(#_Linear9);">C<tspan x="1230.58px " y="3888.95px ">o</tspan>nr<tspan x="2593.1px " y="3888.95px ">a</tspan>d</text></g><g transform="matrix(904.516,0,0,904.516,3637.18,3888.95)"></g><text x="629.488px" y="3888.95px" style="font-family:'Anta-Regular', 'Anta';font-size:904.516px;fill:url(#_Linear10);">C<tspan x="1230.58px " y="3888.95px ">o</tspan>nr<tspan x="2593.1px " y="3888.95px ">a</tspan>d</text><defs><linearGradient id="_Linear1" x1="0" y1="0" x2="1" y2="0" gradientUnits="userSpaceOnUse" gradientTransform="matrix(4266.67,4266.67,-4266.67,4266.67,0,0)"><stop offset="0" style="stop-color:#788f95;stop-opacity:1"/><stop offset="0.45" style="stop-color:#22373c;stop-opacity:1"/><stop offset="1" style="stop-color:#0a1f24;stop-opacity:1"/></linearGradient><linearGradient id="_Linear2" x1="0" y1="0" x2="1" y2="0" gradientUnits="userSpaceOnUse" gradientTransform="matrix(1786.25,1823.32,-1823.32,1786.25,1231.98,732.959)"><stop offset="0" style="stop-color:#cfe3e8;stop-opacity:1"/><stop offset="1" style="stop-color:#1b87c9;stop-opacity:1"/></linearGradient><linearGradient id="_Linear3" x1="0" y1="0" x2="1" y2="0" gradientUnits="userSpaceOnUse" gradientTransform="matrix(1391.23,1406.61,-1406.61,1391.23,1431.45,934.005)"><stop offset="0" style="stop-color:#19b1d0;stop-opacity:1"/><stop offset="1" style="stop-color:#005087;stop-opacity:1"/></linearGradient><radialGradient id="_Radial4" cx="0" cy="0" r="1" gradientUnits="userSpaceOnUse" gradientTransform="matrix(-1.81155e-13,-986.16,986.16,-1.81155e-13,2133.33,1627.72)"><stop offset="0" style="stop-color:#fff;stop-opacity:1"/><stop offset="0.8" style="stop-color:#000;stop-opacity:0.44"/><stop offset="0.82" style="stop-color:#0a0a0a;stop-opacity:0.27"/><stop offset="0.85" style="stop-color:#151515;stop-opacity:0.09"/><stop offset="0.9" style="stop-color:#1a1a1a;stop-opacity:0"/><stop offset="0.96" style="stop-color:#151515;stop-opacity:0.09"/><stop offset="1" style="stop-color:#000;stop-opacity:0.41"/></radialGradient><linearGradient id="_Linear5" x1="0" y1="0" x2="1" y2="0" gradientUnits="userSpaceOnUse" gradientTransform="matrix(607.774,626.619,-626.619,607.774,1826.24,1309.64)"><stop offset="0" style="stop-color:#001e26;stop-opacity:1"/><stop offset="1" style="stop-color:#000;stop-opacity:1"/></linearGradient><linearGradient id="_Linear6" x1="0" y1="0" x2="1" y2="0" gradientUnits="userSpaceOnUse" gradientTransform="matrix(600.72,613.134,-613.134,600.72,1833.29,1323.12)"><stop offset="0" style="stop-color:#003644;stop-opacity:1"/><stop offset="1" style="stop-color:#000;stop-opacity:1"/></linearGradient><linearGradient id="_Linear7" x1="0" y1="0" x2="1" y2="0" gradientUnits="userSpaceOnUse" gradientTransform="matrix(229.167,183.62,-183.62,229.167,1718.71,1396.75)"><stop offset="0" style="stop-color:#fff;stop-opacity:1"/><stop offset="1" style="stop-color:#98b7ca;stop-opacity:1"/></linearGradient><linearGradient id="_Linear8" x1="0" y1="0" x2="1" y2="0" gradientUnits="userSpaceOnUse" gradientTransform="matrix(229.167,183.62,-183.62,229.167,1718.71,1396.75)"><stop offset="0" style="stop-color:#fff;stop-opacity:1"/><stop offset="1" style="stop-color:#98b7ca;stop-opacity:1"/></linearGradient><linearGradient id="_Linear9" x1="0" y1="0" x2="1" y2="0" gradientUnits="userSpaceOnUse" gradientTransform="matrix(2901.69,628.038,-628.038,2901.69,682.487,3260.91)"><stop offset="0" style="stop-color:#c7dfe7;stop-opacity:1"/><stop offset="1" style="stop-color:#a9d6e5;stop-opacity:1"/></linearGradient><linearGradient id="_Linear10" x1="0" y1="0" x2="1" y2="0" gradientUnits="userSpaceOnUse" gradientTransform="matrix(2901.69,628.038,-628.038,2901.69,682.487,3260.91)"><stop offset="0" style="stop-color:#c7dfe7;stop-opacity:1"/><stop offset="1" style="stop-color:#a9d6e5;stop-opacity:1"/></linearGradient></defs></svg>