<?xml version="1.0" encoding="UTF-8" standalone="no"?><!DOCTYPE svg PUBLIC "-//W3C//DTD SVG 1.1//EN" "http://www.w3.org/Graphics/SVG/1.1/DTD/svg11.dtd"><svg width="100%" height="100%" viewBox="0 0 4267 4267" version="1.1" xmlns="http://www.w3.org/2000/svg" xmlns:xlink="http://www.w3.org/1999/xlink" xml:space="preserve" xmlns:serif="http://www.serif.com/" style="fill-rule:evenodd;clip-rule:evenodd;stroke-linejoin:round;stroke-miterlimit:2;"><g><rect x="0" y="0" width="4266.67" height="4266.67" style="fill:url(#_Linear1);"/><g><path d="M883.333,2877.72l0,-2500l2500,0l0,655.224l-1250,594.776l1250,594.776l0,655.224l-2500,0Z" style="fill:none;"/><path d="M883.333,2877.72l0,-2500l2500,0l0,655.224l-1250,594.776l1250,594.776l0,655.224l-2500,0Z" style="fill:none;"/><path d="M883.333,1627.72c0,-689.894 560.107,-1250 1250,-1250c497.671,0 927.802,291.467 1128.86,712.865l-645.473,307.13c-86.095,-180.446 -270.28,-305.255 -483.387,-305.255c-295.417,0 -535.259,239.842 -535.259,535.26c-0,295.418 239.842,535.26 535.259,535.26c213.107,-0 397.292,-124.809 483.387,-305.255l645.473,307.13c-201.058,421.398 -631.189,712.865 -1128.86,712.865c-689.893,0 -1250,-560.106 -1250,-1250Z" style="fill:url(#_Linear2);"/><path d="M3030.54,2054.63c-157.554,335.244 -498.38,567.583 -893.043,567.583c-342.137,-0 -643.813,-174.61 -820.702,-439.502l163.05,-98.112c143.429,209.782 384.577,347.568 657.652,347.568c318.999,-0 594.428,-188.027 721.412,-459.203l171.631,81.666Z" style="fill:#fff;fill-opacity:0.76;"/><path d="M3023.92,2051.48c-158.619,332.453 -497.962,562.399 -890.589,562.399c-544.276,0 -986.16,-441.883 -986.16,-986.16c0,-544.277 441.884,-986.16 986.16,-986.16c392.627,-0 731.97,229.946 890.589,562.399l-171.628,81.665c-128.052,-268.385 -401.999,-454.018 -718.961,-454.018c-439.387,-0 -796.114,356.727 -796.114,796.114c0,439.387 356.727,796.114 796.114,796.114c316.962,0 590.909,-185.633 718.961,-454.018l171.628,81.665Z" style="fill:url(#_Linear3);"/><path d="M3023.92,2051.48c-158.619,332.453 -497.962,562.399 -890.589,562.399c-544.276,0 -986.16,-441.883 -986.16,-986.16c0,-544.277 441.884,-986.16 986.16,-986.16c392.627,-0 731.97,229.946 890.589,562.399l-171.628,81.665c-128.052,-268.385 -401.999,-454.018 -718.961,-454.018c-439.387,-0 -796.114,356.727 -796.114,796.114c0,439.387 356.727,796.114 796.114,796.114c316.962,0 590.909,-185.633 718.961,-454.018l171.628,81.665Z" style="fill:url(#_Radial4);"/><circle cx="2133.33" cy="1627.72" r="375.071" style="fill:url(#_Linear5);"/><circle cx="2133.33" cy="1627.72" r="375.071" style="fill:url(#_Linear6);"/><circle cx="1833.29" cy="1485.11" r="114.583" style="fill:url(#_Linear7);"/><circle cx="1833.29" cy="1485.11" r="114.583" style="fill:url(#_Linear8);"/></g><path d="M760.406,3000.65l-0,-2745.85l2745.86,-0l-0,719.66l-1372.93,653.267l1372.93,653.267l-0,719.66l-2745.86,0Z" style="fill:none;"/><path d="M682.487,3437.57c-0,-32.683 8.097,-62.347 24.291,-88.994c16.194,-26.647 37.835,-47.92 64.924,-63.82c27.088,-15.899 57.121,-23.849 90.098,-23.849l329.035,-0l0,92.748l-329.035,0c-23.85,0 -44.166,8.171 -60.949,24.512c-16.783,16.342 -25.174,36.143 -25.174,59.403l-0,276.478c-0,22.377 8.391,41.59 25.174,57.636c16.783,16.047 37.099,24.071 60.949,24.071l329.035,-0l0,93.19l-329.035,-0c-32.977,-0 -63.01,-7.803 -90.098,-23.408c-27.089,-15.605 -48.73,-36.584 -64.924,-62.937c-16.194,-26.352 -24.291,-55.428 -24.291,-87.227l-0,-277.803Z" style="fill:url(#_Linear9);fill-rule:nonzero;"/><path d="M1279.17,3596.57c-0,-30.327 7.434,-58.004 22.303,-83.032c14.87,-25.027 34.818,-44.975 59.845,-59.844c25.027,-14.869 52.705,-22.304 83.032,-22.304l99.815,-0c30.327,-0 58.004,7.435 83.031,22.304c25.028,14.869 44.976,34.817 59.845,59.844c14.869,25.028 22.304,52.705 22.304,83.032l-0,127.198c-0,30.327 -7.435,58.004 -22.304,83.031c-14.869,25.028 -34.817,44.976 -59.845,59.845c-25.027,14.869 -52.704,22.304 -83.031,22.304l-99.815,-0c-30.327,-0 -58.005,-7.435 -83.032,-22.304c-25.027,-14.869 -44.975,-34.817 -59.845,-59.845c-14.869,-25.027 -22.303,-52.704 -22.303,-83.031l-0,-127.198Zm93.19,126.314c-0,20.022 7.066,37.173 21.199,51.453c14.133,14.281 31.063,21.421 50.791,21.421l99.815,-0c20.021,-0 37.025,-7.14 51.011,-21.421c13.986,-14.28 20.979,-31.431 20.979,-51.453l-0,-125.431c-0,-20.021 -6.993,-37.173 -20.979,-51.453c-13.986,-14.28 -30.99,-21.42 -51.011,-21.42l-99.815,-0c-19.728,-0 -36.658,7.14 -50.791,21.42c-14.133,14.28 -21.199,31.432 -21.199,51.453l-0,125.431Z" style="fill:url(#_Linear10);fill-rule:nonzero;"/><path d="M1810.92,3524.14c-0,-25.616 9.201,-47.478 27.604,-65.586c18.402,-18.108 40.559,-27.162 66.469,-27.162l161.205,-0c30.328,-0 58.005,7.435 83.032,22.304c25.027,14.869 44.976,34.817 59.845,59.844c14.869,25.028 22.303,52.705 22.303,83.032l0,292.378l-93.189,-0l-0,-291.053c-0,-20.611 -6.993,-38.13 -20.979,-52.557c-13.986,-14.428 -30.99,-21.642 -51.012,-21.642l-162.088,0l-0,365.252l-93.19,-0l-0,-364.81Z" style="fill:url(#_Linear11);fill-rule:nonzero;"/><path d="M2337.38,3559.47c0,-23.555 5.963,-45.049 17.887,-64.482c11.925,-19.433 27.825,-34.891 47.7,-46.374c19.874,-11.484 41.883,-17.225 66.027,-17.225l102.023,-0l0,92.748l-102.023,0c-10.599,0 -19.653,3.607 -27.162,10.821c-7.508,7.213 -11.262,15.973 -11.262,26.278l0,327.711l-93.19,-0l0,-329.477Z" style="fill:url(#_Linear12);fill-rule:nonzero;"/><path d="M2641.68,3595.68c-0,-30.327 7.434,-57.857 22.303,-82.59c14.87,-24.733 34.818,-44.534 59.845,-59.403c25.027,-14.869 52.705,-22.304 83.032,-22.304l255.278,-0l0,457.558l-93.19,-0l0,-364.368l-162.088,-0c-19.728,-0 -36.658,6.993 -50.791,20.979c-14.133,13.985 -21.199,30.989 -21.199,51.011l-0,126.314c-0,20.022 7.066,37.173 21.199,51.453c14.133,14.281 31.063,21.421 50.791,21.421l109.089,-0l0,93.19l-109.089,-0c-30.327,-0 -58.005,-7.435 -83.032,-22.304c-25.027,-14.869 -44.975,-34.817 -59.845,-59.845c-14.869,-25.027 -22.303,-52.704 -22.303,-83.031l-0,-128.081Z" style="fill:url(#_Linear13);fill-rule:nonzero;"/><path d="M3163.72,3596.57c0,-30.327 7.435,-58.004 22.304,-83.032c14.869,-25.027 34.818,-44.975 59.845,-59.844c25.027,-14.869 52.704,-22.304 83.032,-22.304l109.089,-0l0,93.19l-109.089,-0c-19.728,-0 -36.658,7.14 -50.791,21.42c-14.133,14.28 -21.2,31.432 -21.2,51.453l0,126.315c0,19.727 7.067,36.657 21.2,50.79c14.133,14.133 31.063,21.2 50.791,21.2l162.088,-0l0,-534.848l93.19,-0l-0,534.848c-0,25.616 -9.128,47.552 -27.383,65.807c-18.255,18.255 -40.191,27.383 -65.807,27.383l-162.088,-0c-30.328,-0 -58.005,-7.435 -83.032,-22.304c-25.027,-14.869 -44.976,-34.744 -59.845,-59.624c-14.869,-24.88 -22.304,-52.336 -22.304,-82.369l0,-128.081Z" style="fill:url(#_Linear14);fill-rule:nonzero;"/></g><path d="M682.487,3437.57c-0,-32.683 8.097,-62.347 24.291,-88.994c16.194,-26.647 37.835,-47.92 64.924,-63.82c27.088,-15.899 57.121,-23.849 90.098,-23.849l329.035,-0l0,92.748l-329.035,0c-23.85,0 -44.166,8.171 -60.949,24.512c-16.783,16.342 -25.174,36.143 -25.174,59.403l-0,276.478c-0,22.377 8.391,41.59 25.174,57.636c16.783,16.047 37.099,24.071 60.949,24.071l329.035,-0l0,93.19l-329.035,-0c-32.977,-0 -63.01,-7.803 -90.098,-23.408c-27.089,-15.605 -48.73,-36.584 -64.924,-62.937c-16.194,-26.352 -24.291,-55.428 -24.291,-87.227l-0,-277.803Z" style="fill:url(#_Linear15);fill-rule:nonzero;"/><path d="M1279.17,3596.57c-0,-30.327 7.434,-58.004 22.303,-83.032c14.87,-25.027 34.818,-44.975 59.845,-59.844c25.027,-14.869 52.705,-22.304 83.032,-22.304l99.815,-0c30.327,-0 58.004,7.435 83.031,22.304c25.028,14.869 44.976,34.817 59.845,59.844c14.869,25.028 22.304,52.705 22.304,83.032l-0,127.198c-0,30.327 -7.435,58.004 -22.304,83.031c-14.869,25.028 -34.817,44.976 -59.845,59.845c-25.027,14.869 -52.704,22.304 -83.031,22.304l-99.815,-0c-30.327,-0 -58.005,-7.435 -83.032,-22.304c-25.027,-14.869 -44.975,-34.817 -59.845,-59.845c-14.869,-25.027 -22.303,-52.704 -22.303,-83.031l-0,-127.198Zm93.19,126.314c-0,20.022 7.066,37.173 21.199,51.453c14.133,14.281 31.063,21.421 50.791,21.421l99.815,-0c20.021,-0 37.025,-7.14 51.011,-21.421c13.986,-14.28 20.979,-31.431 20.979,-51.453l-0,-125.431c-0,-20.021 -6.993,-37.173 -20.979,-51.453c-13.986,-14.28 -30.99,-21.42 -51.011,-21.42l-99.815,-0c-19.728,-0 -36.658,7.14 -50.791,21.42c-14.133,14.28 -21.199,31.432 -21.199,51.453l-0,125.431Z" style="fill:url(#_Linear16);fill-rule:nonzero;"/><path d="M1810.92,3524.14c-0,-25.616 9.201,-47.478 27.604,-65.586c18.402,-18.108 40.559,-27.162 66.469,-27.162l161.205,-0c30.328,-0 58.005,7.435 83.032,22.304c25.027,14.869 44.976,34.817 59.845,59.844c14.869,25.028 22.303,52.705 22.303,83.032l0,292.378l-93.189,-0l-0,-291.053c-0,-20.611 -6.993,-38.13 -20.979,-52.557c-13.986,-14.428 -30.99,-21.642 -51.012,-21.642l-162.088,0l-0,365.252l-93.19,-0l-0,-364.81Z" style="fill:url(#_Linear17);fill-rule:nonzero;"/><path d="M2337.38,3559.47c0,-23.555 5.963,-45.049 17.887,-64.482c11.925,-19.433 27.825,-34.891 47.7,-46.374c19.874,-11.484 41.883,-17.225 66.027,-17.225l102.023,-0l0,92.748l-102.023,0c-10.599,0 -19.653,3.607 -27.162,10.821c-7.508,7.213 -11.262,15.973 -11.262,26.278l0,327.711l-93.19,-0l0,-329.477Z" style="fill:url(#_Linear18);fill-rule:nonzero;"/><path d="M2641.68,3595.68c-0,-30.327 7.434,-57.857 22.303,-82.59c14.87,-24.733 34.818,-44.534 59.845,-59.403c25.027,-14.869 52.705,-22.304 83.032,-22.304l255.278,-0l0,457.558l-93.19,-0l0,-364.368l-162.088,-0c-19.728,-0 -36.658,6.993 -50.791,20.979c-14.133,13.985 -21.199,30.989 -21.199,51.011l-0,126.314c-0,20.022 7.066,37.173 21.199,51.453c14.133,14.281 31.063,21.421 50.791,21.421l109.089,-0l0,93.19l-109.089,-0c-30.327,-0 -58.005,-7.435 -83.032,-22.304c-25.027,-14.869 -44.975,-34.817 -59.845,-59.845c-14.869,-25.027 -22.303,-52.704 -22.303,-83.031l-0,-128.081Z" style="fill:url(#_Linear19);fill-rule:nonzero;"/><path d="M3163.72,3596.57c0,-30.327 7.435,-58.004 22.304,-83.032c14.869,-25.027 34.818,-44.975 59.845,-59.844c25.027,-14.869 52.704,-22.304 83.032,-22.304l109.089,-0l0,93.19l-109.089,-0c-19.728,-0 -36.658,7.14 -50.791,21.42c-14.133,14.28 -21.2,31.432 -21.2,51.453l0,126.315c0,19.727 7.067,36.657 21.2,50.79c14.133,14.133 31.063,21.2 50.791,21.2l162.088,-0l0,-534.848l93.19,-0l-0,534.848c-0,25.616 -9.128,47.552 -27.383,65.807c-18.255,18.255 -40.191,27.383 -65.807,27.383l-162.088,-0c-30.328,-0 -58.005,-7.435 -83.032,-22.304c-25.027,-14.869 -44.976,-34.744 -59.845,-59.624c-14.869,-24.88 -22.304,-52.336 -22.304,-82.369l0,-128.081Z" style="fill:url(#_Linear20);fill-rule:nonzero;"/><defs><linearGradient id="_Linear1" x1="0" y1="0" x2="1" y2="0" gradientUnits="userSpaceOnUse" gradientTransform="matrix(4266.67,4266.67,-4266.67,4266.67,0,0)"><stop offset="0" style="stop-color:#788f95;stop-opacity:1"/><stop offset="0.45" style="stop-color:#22373c;stop-opacity:1"/><stop offset="1" style="stop-color:#0a1f24;stop-opacity:1"/></linearGradient><linearGradient id="_Linear2" x1="0" y1="0" x2="1" y2="0" gradientUnits="userSpaceOnUse" gradientTransform="matrix(1786.25,1823.32,-1823.32,1786.25,1231.98,732.959)"><stop offset="0" style="stop-color:#cfe3e8;stop-opacity:1"/><stop offset="1" style="stop-color:#1b87c9;stop-opacity:1"/></linearGradient><linearGradient id="_Linear3" x1="0" y1="0" x2="1" y2="0" gradientUnits="userSpaceOnUse" gradientTransform="matrix(1391.23,1406.61,-1406.61,1391.23,1431.45,934.005)"><stop offset="0" style="stop-color:#19b1d0;stop-opacity:1"/><stop offset="1" style="stop-color:#005087;stop-opacity:1"/></linearGradient><radialGradient id="_Radial4" cx="0" cy="0" r="1" gradientUnits="userSpaceOnUse" gradientTransform="matrix(-1.81155e-13,-986.16,986.16,-1.81155e-13,2133.33,1627.72)"><stop offset="0" style="stop-color:#fff;stop-opacity:1"/><stop offset="0.8" style="stop-color:#000;stop-opacity:0.44"/><stop offset="0.82" style="stop-color:#0a0a0a;stop-opacity:0.27"/><stop offset="0.85" style="stop-color:#151515;stop-opacity:0.09"/><stop offset="0.9" style="stop-color:#1a1a1a;stop-opacity:0"/><stop offset="0.96" style="stop-color:#151515;stop-opacity:0.09"/><stop offset="1" style="stop-color:#000;stop-opacity:0.41"/></radialGradient><linearGradient id="_Linear5" x1="0" y1="0" x2="1" y2="0" gradientUnits="userSpaceOnUse" gradientTransform="matrix(607.774,626.619,-626.619,607.774,1826.24,1309.64)"><stop offset="0" style="stop-color:#001e26;stop-opacity:1"/><stop offset="1" style="stop-color:#000;stop-opacity:1"/></linearGradient><linearGradient id="_Linear6" x1="0" y1="0" x2="1" y2="0" gradientUnits="userSpaceOnUse" gradientTransform="matrix(600.72,613.134,-613.134,600.72,1833.29,1323.12)"><stop offset="0" style="stop-color:#003644;stop-opacity:1"/><stop offset="1" style="stop-color:#000;stop-opacity:1"/></linearGradient><linearGradient id="_Linear7" x1="0" y1="0" x2="1" y2="0" gradientUnits="userSpaceOnUse" gradientTransform="matrix(229.167,183.62,-183.62,229.167,1718.71,1396.75)"><stop offset="0" style="stop-color:#fff;stop-opacity:1"/><stop offset="1" style="stop-color:#98b7ca;stop-opacity:1"/></linearGradient><linearGradient id="_Linear8" x1="0" y1="0" x2="1" y2="0" gradientUnits="userSpaceOnUse" gradientTransform="matrix(229.167,183.62,-183.62,229.167,1718.71,1396.75)"><stop offset="0" style="stop-color:#fff;stop-opacity:1"/><stop offset="1" style="stop-color:#98b7ca;stop-opacity:1"/></linearGradient><linearGradient id="_Linear9" x1="0" y1="0" x2="1" y2="0" gradientUnits="userSpaceOnUse" gradientTransform="matrix(2901.69,628.038,-628.038,2901.69,682.487,3260.91)"><stop offset="0" style="stop-color:#c7dfe7;stop-opacity:1"/><stop offset="1" style="stop-color:#a9d6e5;stop-opacity:1"/></linearGradient><linearGradient id="_Linear10" x1="0" y1="0" x2="1" y2="0" gradientUnits="userSpaceOnUse" gradientTransform="matrix(2901.69,628.038,-628.038,2901.69,682.487,3260.91)"><stop offset="0" style="stop-color:#c7dfe7;stop-opacity:1"/><stop offset="1" style="stop-color:#a9d6e5;stop-opacity:1"/></linearGradient><linearGradient id="_Linear11" x1="0" y1="0" x2="1" y2="0" gradientUnits="userSpaceOnUse" gradientTransform="matrix(2901.69,628.038,-628.038,2901.69,682.487,3260.91)"><stop offset="0" style="stop-color:#c7dfe7;stop-opacity:1"/><stop offset="1" style="stop-color:#a9d6e5;stop-opacity:1"/></linearGradient><linearGradient id="_Linear12" x1="0" y1="0" x2="1" y2="0" gradientUnits="userSpaceOnUse" gradientTransform="matrix(2901.69,628.038,-628.038,2901.69,682.487,3260.91)"><stop offset="0" style="stop-color:#c7dfe7;stop-opacity:1"/><stop offset="1" style="stop-color:#a9d6e5;stop-opacity:1"/></linearGradient><linearGradient id="_Linear13" x1="0" y1="0" x2="1" y2="0" gradientUnits="userSpaceOnUse" gradientTransform="matrix(2901.69,628.038,-628.038,2901.69,682.487,3260.91)"><stop offset="0" style="stop-color:#c7dfe7;stop-opacity:1"/><stop offset="1" style="stop-color:#a9d6e5;stop-opacity:1"/></linearGradient><linearGradient id="_Linear14" x1="0" y1="0" x2="1" y2="0" gradientUnits="userSpaceOnUse" gradientTransform="matrix(2901.69,628.038,-628.038,2901.69,682.487,3260.91)"><stop offset="0" style="stop-color:#c7dfe7;stop-opacity:1"/><stop offset="1" style="stop-color:#a9d6e5;stop-opacity:1"/></linearGradient><linearGradient id="_Linear15" x1="0" y1="0" x2="1" y2="0" gradientUnits="userSpaceOnUse" gradientTransform="matrix(2901.69,628.038,-628.038,2901.69,682.487,3260.91)"><stop offset="0" style="stop-color:#c7dfe7;stop-opacity:1"/><stop offset="1" style="stop-color:#a9d6e5;stop-opacity:1"/></linearGradient><linearGradient id="_Linear16" x1="0" y1="0" x2="1" y2="0" gradientUnits="userSpaceOnUse" gradientTransform="matrix(2901.69,628.038,-628.038,2901.69,682.487,3260.91)"><stop offset="0" style="stop-color:#c7dfe7;stop-opacity:1"/><stop offset="1" style="stop-color:#a9d6e5;stop-opacity:1"/></linearGradient><linearGradient id="_Linear17" x1="0" y1="0" x2="1" y2="0" gradientUnits="userSpaceOnUse" gradientTransform="matrix(2901.69,628.038,-628.038,2901.69,682.487,3260.91)"><stop offset="0" style="stop-color:#c7dfe7;stop-opacity:1"/><stop offset="1" style="stop-color:#a9d6e5;stop-opacity:1"/></linearGradient><linearGradient id="_Linear18" x1="0" y1="0" x2="1" y2="0" gradientUnits="userSpaceOnUse" gradientTransform="matrix(2901.69,628.038,-628.038,2901.69,682.487,3260.91)"><stop offset="0" style="stop-color:#c7dfe7;stop-opacity:1"/><stop offset="1" style="stop-color:#a9d6e5;stop-opacity:1"/></linearGradient><linearGradient id="_Linear19" x1="0" y1="0" x2="1" y2="0" gradientUnits="userSpaceOnUse" gradientTransform="matrix(2901.69,628.038,-628.038,2901.69,682.487,3260.91)"><stop offset="0" style="stop-color:#c7dfe7;stop-opacity:1"/><stop offset="1" style="stop-color:#a9d6e5;stop-opacity:1"/></linearGradient><linearGradient id="_Linear20" x1="0" y1="0" x2="1" y2="0" gradientUnits="userSpaceOnUse" gradientTransform="matrix(2901.69,628.038,-628.038,2901.69,682.487,3260.91)"><stop offset="0" style="stop-color:#c7dfe7;stop-opacity:1"/><stop offset="1" style="stop-color:#a9d6e5;stop-opacity:1"/></linearGradient></defs></svg>